<svg xmlns="http://www.w3.org/2000/svg" xmlns:xlink="http://www.w3.org/1999/xlink" width="162" height="103" viewBox="0 0 162 103">
  <defs>
    <clipPath id="clip-path">
      <rect id="Rectangle_54" data-name="Rectangle 54" width="162" height="103" transform="translate(1089 4353)" fill="#fff" stroke="#707070" stroke-width="1"/>
    </clipPath>
  </defs>
  <g id="Mask_Group_1" data-name="Mask Group 1" transform="translate(-1089 -4353)" clip-path="url(#clip-path)">
    <g id="src_assets_LogoAexol_2_" data-name="src_assets_LogoAexol (2)" transform="translate(1110.541 4353)">
      <path id="Path_6" data-name="Path 6" d="M2.223,88.881H6.318a1.386,1.386,0,0,0,1.34-.893L9,85.01H19.121l1.34,2.94c.335.707.633.93,1.3.93h4.131a.657.657,0,0,0,.633-.968L14.878,62.864a.756.756,0,0,0-.633-.409h-.372a.756.756,0,0,0-.633.409L1.591,87.913A.657.657,0,0,0,2.223,88.881Zm9.007-8.933,2.791-6.141h.037l2.829,6.141Zm18.353,8.225a.707.707,0,0,0,.707.707H45.7a.707.707,0,0,0,.707-.707V84.117a.707.707,0,0,0-.707-.707H35.39V78.385h8.486a.707.707,0,0,0,.707-.707V73.621a.732.732,0,0,0-.707-.707H35.39V68.3H45.7a.707.707,0,0,0,.707-.707V63.534a.707.707,0,0,0-.707-.707H30.291a.707.707,0,0,0-.707.707Zm19.5-.335c-.335.484,0,1.042.633,1.042H54.89a.815.815,0,0,0,.633-.335l4.764-7.518h.074l4.876,7.518a.829.829,0,0,0,.633.335h5.173a.65.65,0,0,0,.6-1.042l-7.816-12.32,7.555-11.65c.335-.484,0-1.042-.633-1.042H65.311a.74.74,0,0,0-.6.335l-4.355,6.923h-.037l-4.28-6.923a.8.8,0,0,0-.6-.335H50.014a.669.669,0,0,0-.633,1.042L56.9,75.519ZM73.519,75.891A13.38,13.38,0,1,0,86.88,62.455,13.28,13.28,0,0,0,73.519,75.891Zm5.955,0A7.425,7.425,0,1,1,86.88,83.3,7.49,7.49,0,0,1,79.474,75.891Zm25.311,12.282a.707.707,0,0,0,.707.707h13.995a.707.707,0,0,0,.707-.707V84.117a.707.707,0,0,0-.707-.707h-8.858V63.534a.732.732,0,0,0-.707-.707h-4.429a.707.707,0,0,0-.707.707Z" transform="translate(-1.516 -23.747)" fill="#eae8eb"/>
      <path id="Path_7" data-name="Path 7" d="M80.7,146.379v12.78H92.58v-12.78Zm8.715,8.907H83.829v-5.538h5.582Z" transform="translate(-31.623 -55.658)" fill="#414048"/>
      <path id="Path_8" data-name="Path 8" d="M183.112,121.982h-2.953v13.245h2.953Z" transform="translate(-69.441 -46.381)" fill="#414048"/>
      <path id="Path_9" data-name="Path 9" d="M64.718,0H52.546V13.09H64.718Z" transform="translate(-20.919)" fill="#414048"/>
    </g>
  </g>
</svg>
